<?xml version="1.0" encoding="iso-8859-1"?>
<!-- Generator: Adobe Illustrator 19.0.0, SVG Export Plug-In . SVG Version: 6.00 Build 0)  -->
<svg version="1.1" id="Capa_1" xmlns="http://www.w3.org/2000/svg" xmlns:xlink="http://www.w3.org/1999/xlink" x="0px" y="0px"
	 viewBox="0 0 511.999 511.999" style="enable-background:new 0 0 511.999 511.999;" xml:space="preserve">
<path style="fill:#896748;" d="M501.251,350.671c0,0,0.93,5.618,0,14.225c-16.154,92.397-203.816,113.309-245.511,4.998
	c-41.445,108.111-229.307,87.638-245.491-4.998c-0.93-8.607,0-14.225,0-14.225c3.959-38.196,38.206-46.543,38.206-46.543
	c-11.416,16.254-6.148,34.688-6.148,34.688c5.478,27.41,62.907,33.848,98.674-4.039c25.931-27.46,51.082-29.979,51.082-29.979
	c38.206-3.949,63.567,23.881,63.617,23.841c1.409-1.439,26.251-27.72,63.757-23.841c0,0,25.151,2.519,51.072,29.979
	c35.787,37.896,93.206,31.439,98.684,4.039c0,0,5.258-18.433-6.148-34.688C463.045,304.127,497.302,312.474,501.251,350.671z"/>
<g>
	<path style="fill:#57555C;" d="M500.491,132.549c7.544,42.991-21.412,130.573-100.084,130.573
		c-30.409,0-67.166-16.354-90.377-44.864c-19.401-23.811-33.762-57.524-27.7-86.899c7.29-35.265,31.577-51.152,65.546-57.719
		c16.084-3.119,35.277-4.618,55.92-4.618C451.919,69.022,492.16,85.155,500.491,132.549z"/>
	<path style="fill:#57555C;" d="M201.469,218.258c-23.212,28.51-62.228,44.864-92.647,44.864
		c-70.665,0-106.446-81.391-97.815-130.573c3.249-18.483,11.706-33.288,25.151-44.004c16.244-12.955,39.556-19.523,69.275-19.523
		c20.992,0,41.275,1.549,58.169,4.768c34.109,6.503,58.244,22.238,65.566,57.569C235.254,160.849,220.803,194.529,201.469,218.258z"
		/>
</g>
<path d="M464.184,153.162c5.528,0,9.996-4.478,9.996-9.996s-4.468-9.996-9.996-9.996c-5.518,0-9.996,4.478-9.996,9.996
	S458.666,153.162,464.184,153.162z"/>
<path d="M47.815,153.162c5.518,0,9.996-4.478,9.996-9.996s-4.478-9.996-9.996-9.996c-5.528,0-9.996,4.478-9.996,9.996
	S42.287,153.162,47.815,153.162z"/>
<path d="M511.418,349.404c-4.735-44.496-44.082-54.58-45.757-54.989c-8.941-2.178-15.835,7.92-10.549,15.454
	c8.402,11.974,4.734,26.135,4.717,26.204c-0.074,0.258-0.137,0.52-0.189,0.783c-3.463,17.317-50.39,24.124-81.613-8.941
	c-28.158-29.83-56.167-32.946-57.313-33.061c-30.39-3.143-53.419,11.153-64.804,20.355c-11.383-9.16-34.437-23.475-64.595-20.359
	c-1.179,0.118-29.185,3.234-57.353,33.064c-20.719,21.945-48.924,26.548-66.365,21.539c-4.058-1.166-13.665-4.726-15.238-12.597
	c-1.921-9.676-1.167-18.879,4.525-26.983c2.393-3.407,2.423-7.94,0.076-11.38c-2.347-3.44-6.585-5.061-10.624-4.078
	c-1.675,0.408-41.009,10.493-45.756,54.987c-6.084,42.186,35.941,94.99,115.628,102.709c53.888,5.217,111.263-13.056,139.792-59.676
	c28.441,46.412,85.488,64.955,139.816,59.661C475.382,444.339,517.518,391.584,511.418,349.404z M393.876,432.198
	c-45.873,4.47-107.079-10.1-128.558-65.895c-1.484-3.859-5.193-6.405-9.329-6.405c-0.002,0-0.005,0-0.007,0
	c-4.139,0.003-7.846,2.555-9.328,6.418c-21.374,55.756-82.585,70.343-128.519,65.896c-43.296-4.194-90.237-27.064-97.734-68.715
	c-1.373-13.352,1.784-27.147,11.007-37.263c-0.797,21.72,9.104,36.242,30.669,42.436c23.847,6.85,59.819,1.148,86.421-27.03
	c22.722-24.062,43.997-26.8,44.841-26.899c30.201-3.117,51.365,16.735,55.299,20.746c4.345,4.428,10.712,3.943,14.432,0.146
	l0.116-0.119c3.908-4.023,24.947-23.926,55.421-20.779c0.895,0.105,22.168,2.842,44.881,26.905
	c41.323,43.76,108.132,35.396,115.69-0.557c0.424-1.669,1.681-7.343,1.404-14.856c5.239,5.74,9.779,13.933,10.973,25.471
	c0.021,0.202,0.038,0.341,0.071,0.541C496.078,381.483,463.544,425.406,393.876,432.198z"/>
<path d="M109.071,273.119c35.841,0,77.126-19.964,100.398-48.545c21.264-26.101,32.709-57.144,31.179-84.024
	c3.719-3.813,8.914-7.38,15.351-7.38s11.633,3.567,15.351,7.38c-1.53,26.879,9.914,57.923,31.177,84.021
	c24.011,29.492,62.529,48.548,98.13,48.548c84.931,0,118.601-92.89,109.929-142.301c-9.226-52.489-53.248-71.792-106.54-71.792
	c-20.622,0-39.045,1.427-54.822,4.243c-0.387-0.045-0.778-0.075-1.177-0.075H163.974c-0.576,0-1.137,0.059-1.685,0.153
	c-16.31-2.83-35.785-4.321-56.604-4.321c-65.783,0-97.101,31.005-104.272,71.795C-7.911,183.948,30.347,273.119,109.071,273.119z
	 M255.999,113.176c-6.857,0-13.531,1.913-19.668,5.524c-4.833-14.481-13.006-26.461-24.438-35.613h88.211
	c-11.438,9.154-19.612,21.133-24.439,35.611C269.527,115.089,262.854,113.176,255.999,113.176z M490.895,134.278
	c6.68,38.067-19.195,118.849-90.238,118.849c-29.368,0-62.573-16.548-82.627-41.181c-17.283-21.211-31.041-52.423-25.661-78.561
	c6.368-30.801,27.035-44.007,57.66-49.929c14.965-2.902,33.643-4.435,54.017-4.435C447.144,79.019,483.466,92.014,490.895,134.278z
	 M21.102,134.281c7.289-41.465,42.642-55.261,84.58-55.261c23.135,0,62.049,2.24,82.64,12.685
	c17.28,8.757,27.228,22.003,31.305,41.674c5.394,26.215-8.378,57.355-25.662,78.57c-23.035,28.293-60.154,41.178-84.895,41.178
	C43.17,253.126,13.98,174.878,21.102,134.281z"/>
<path d="M53.741,172.719c-5.088,2.142-7.476,8.004-5.333,13.092c8.574,20.364,21.666,35.307,36.864,42.079
	c5.024,2.239,10.943-0.002,13.199-5.062c2.246-5.043-0.021-10.953-5.063-13.199C83.021,205,73.335,193.491,66.834,178.053
	C64.691,172.964,58.83,170.576,53.741,172.719z"/>
<path d="M422.695,228.758c1.359,0,2.742-0.279,4.065-0.869c15.19-6.773,28.271-21.718,36.834-42.083
	c2.14-5.089-0.252-10.95-5.341-13.089c-5.085-2.139-10.95,0.25-13.09,5.34c-6.49,15.436-16.165,26.944-26.544,31.572
	c-5.042,2.248-7.308,8.159-5.059,13.201C415.218,226.549,418.868,228.758,422.695,228.758z"/>
<g>
</g>
<g>
</g>
<g>
</g>
<g>
</g>
<g>
</g>
<g>
</g>
<g>
</g>
<g>
</g>
<g>
</g>
<g>
</g>
<g>
</g>
<g>
</g>
<g>
</g>
<g>
</g>
<g>
</g>
</svg>
